<svg id="Laag_1" data-name="Laag 1" xmlns="http://www.w3.org/2000/svg" viewBox="0 0 1092 480"><defs><style>.cls-1{fill:#d95204;}.cls-2{fill:#400e03;}</style></defs><path class="cls-1" d="M456,376H600a48,48,0,0,0,48-48V280H360V472h0a96,96,0,0,0,96-96Z" transform="translate(-360 -280)"/><path class="cls-2" d="M696,568a48,48,0,0,0,48-48V360H696a48,48,0,0,0-48,48v64H552a95.58,95.58,0,0,0-45.08,11.22,90.93,90.93,0,0,0-8,4.76,96,96,0,0,0-43,80h0L634.06,746a48,48,0,0,0,67.84-67.88L591.76,568H696Z" transform="translate(-360 -280)"/><path class="cls-2" d="M1247.66,280H1056c5,109.92,112.44,96.93,191.66,95.79v95.8H1103.91c-10.17,127.05,52.51,90.09,143.75,95.79v95.79h-95.83V615.28c-2.52-55-56.22-48.47-95.83-47.9V759h95.83c79.34,1.13,186.6,14.1,191.65-95.8V519.48a47.9,47.9,0,0,0-47.91-47.89c55-2.55,48.47-56.17,47.91-95.8A95.81,95.81,0,0,0,1247.66,280Z" transform="translate(-360 -280)"/><path class="cls-2" d="M852,471.91V663.83h0a96,96,0,0,0,96-96V376h0A96,96,0,0,0,852,471.91Z" transform="translate(-360 -280)"/><path class="cls-2" d="M948,280h0v96h96A96,96,0,0,0,948,280Z" transform="translate(-360 -280)"/><path class="cls-2" d="M756,663.83a96,96,0,0,0,96,95.95h0V663.83Z" transform="translate(-360 -280)"/><path class="cls-1" d="M852,280.22h0v95.95H756A96,96,0,0,1,852,280.22Z" transform="translate(-360 -280)"/><path class="cls-1" d="M1044,664a96,96,0,0,1-96,96h0V664Z" transform="translate(-360 -280)"/><path class="cls-1" d="M756,472.13h0v-96h96A96,96,0,0,1,756,472.13Z" transform="translate(-360 -280)"/><path class="cls-1" d="M948,664a96,96,0,0,1,96-95.95h0V664Z" transform="translate(-360 -280)"/><path class="cls-1" d="M1356,496V760h0a96,96,0,0,0,96-96V400h0A96,96,0,0,0,1356,496Z" transform="translate(-360 -280)"/><path class="cls-2" d="M1356,280v96h0a96,96,0,0,0,96-96h-96Z" transform="translate(-360 -280)"/></svg>